{
    "asset": {
        "generator": "FBX2glTF v0.9.7",
        "version": "2.0"
    },
    "scene": 0,
    "buffers": [
        {
            "byteLength": 28708280,
            "uri": "buffer.bin"
        }
    ],
    "bufferViews": [
        {
            "buffer": 0,
            "byteLength": 11232,
            "byteOffset": 0,
            "target": 34963
        },
        {
            "buffer": 0,
            "byteLength": 13320,
            "byteOffset": 11232,
            "target": 34962
        },
        {
            "buffer": 0,
            "byteLength": 13320,
            "byteOffset": 24552,
            "target": 34962
        },
        {
            "buffer": 0,
            "byteLength": 8880,
            "byteOffset": 37872,
            "target": 34962
        },
        {
            "buffer": 0,
            "byteLength": 8880,
            "byteOffset": 46752,
            "target": 34962
        },
        {
            "buffer": 0,
            "byteLength": 19008,
            "byteOffset": 55632,
            "target": 34963
        },
        {
            "buffer": 0,
            "byteLength": 31536,
            "byteOffset": 74640,
            "target": 34962
        },
        {
            "buffer": 0,
            "byteLength": 31536,
            "byteOffset": 106176,
            "target": 34962
        },
        {
            "buffer": 0,
            "byteLength": 21024,
            "byteOffset": 137712,
            "target": 34962
        },
        {
            "buffer": 0,
            "byteLength": 21024,
            "byteOffset": 158736,
            "target": 34962
        },
        {
            "buffer": 0,
            "byteLength": 49152,
            "byteOffset": 179760,
            "target": 34963
        },
        {
            "buffer": 0,
            "byteLength": 58536,
            "byteOffset": 228912,
            "target": 34962
        },
        {
            "buffer": 0,
            "byteLength": 58536,
            "byteOffset": 287448,
            "target": 34962
        },
        {
            "buffer": 0,
            "byteLength": 39024,
            "byteOffset": 345984,
            "target": 34962
        },
        {
            "buffer": 0,
            "byteLength": 39024,
            "byteOffset": 385008,
            "target": 34962
        },
        {
            "buffer": 0,
            "byteLength": 4933536,
            "byteOffset": 424032,
            "target": 34963
        },
        {
            "buffer": 0,
            "byteLength": 2961852,
            "byteOffset": 5357568,
            "target": 34962
        },
        {
            "buffer": 0,
            "byteLength": 2961852,
            "byteOffset": 8319420,
            "target": 34962
        },
        {
            "buffer": 0,
            "byteLength": 1974568,
            "byteOffset": 11281272,
            "target": 34962
        },
        {
            "buffer": 0,
            "byteLength": 1974568,
            "byteOffset": 13255840,
            "target": 34962
        },
        {
            "buffer": 0,
            "byteLength": 4810752,
            "byteOffset": 15230408,
            "target": 34963
        },
        {
            "buffer": 0,
            "byteLength": 2600136,
            "byteOffset": 20041160,
            "target": 34962
        },
        {
            "buffer": 0,
            "byteLength": 2600136,
            "byteOffset": 22641296,
            "target": 34962
        },
        {
            "buffer": 0,
            "byteLength": 1733424,
            "byteOffset": 25241432,
            "target": 34962
        },
        {
            "buffer": 0,
            "byteLength": 1733424,
            "byteOffset": 26974856,
            "target": 34962
        }
    ],
    "scenes": [
        {
            "name": "Root Scene",
            "nodes": [
                0
            ]
        }
    ],
    "accessors": [
        {
            "componentType": 5123,
            "type": "SCALAR",
            "count": 5616,
            "bufferView": 0,
            "byteOffset": 0
        },
        {
            "componentType": 5126,
            "type": "VEC3",
            "count": 1110,
            "bufferView": 1,
            "byteOffset": 0,
            "min": [
                -0.00835255347192287,
                -0.00856815651059151,
                -0.00694910576567054
            ],
            "max": [
                0.0076332283206284,
                0.00872789323329926,
                0.004362010397017
            ]
        },
        {
            "componentType": 5126,
            "type": "VEC3",
            "count": 1110,
            "bufferView": 2,
            "byteOffset": 0
        },
        {
            "componentType": 5126,
            "type": "VEC2",
            "count": 1110,
            "bufferView": 3,
            "byteOffset": 0
        },
        {
            "componentType": 5126,
            "type": "VEC2",
            "count": 1110,
            "bufferView": 4,
            "byteOffset": 0
        },
        {
            "componentType": 5123,
            "type": "SCALAR",
            "count": 9504,
            "bufferView": 5,
            "byteOffset": 0
        },
        {
            "componentType": 5126,
            "type": "VEC3",
            "count": 2628,
            "bufferView": 6,
            "byteOffset": 0,
            "min": [
                -0.00967746041715145,
                -0.0107666905969381,
                -0.00662050629034638
            ],
            "max": [
                0.00967746041715145,
                0.0107666905969381,
                0.00694910576567054
            ]
        },
        {
            "componentType": 5126,
            "type": "VEC3",
            "count": 2628,
            "bufferView": 7,
            "byteOffset": 0
        },
        {
            "componentType": 5126,
            "type": "VEC2",
            "count": 2628,
            "bufferView": 8,
            "byteOffset": 0
        },
        {
            "componentType": 5126,
            "type": "VEC2",
            "count": 2628,
            "bufferView": 9,
            "byteOffset": 0
        },
        {
            "componentType": 5123,
            "type": "SCALAR",
            "count": 24576,
            "bufferView": 10,
            "byteOffset": 0
        },
        {
            "componentType": 5126,
            "type": "VEC3",
            "count": 4878,
            "bufferView": 11,
            "byteOffset": 0,
            "min": [
                0.0260167568922043,
                -0.0244085881859064,
                -0.0817791745066643
            ],
            "max": [
                0.0378741435706615,
                -0.00553099857643247,
                0.0817791745066643
            ]
        },
        {
            "componentType": 5126,
            "type": "VEC3",
            "count": 4878,
            "bufferView": 12,
            "byteOffset": 0
        },
        {
            "componentType": 5126,
            "type": "VEC2",
            "count": 4878,
            "bufferView": 13,
            "byteOffset": 0
        },
        {
            "componentType": 5126,
            "type": "VEC2",
            "count": 4878,
            "bufferView": 14,
            "byteOffset": 0
        },
        {
            "componentType": 5125,
            "type": "SCALAR",
            "count": 1233384,
            "bufferView": 15,
            "byteOffset": 0
        },
        {
            "componentType": 5126,
            "type": "VEC3",
            "count": 246821,
            "bufferView": 16,
            "byteOffset": 0,
            "min": [
                -0.0967781394720078,
                -0.0416429601609707,
                -0.0888417512178421
            ],
            "max": [
                0.0967781394720078,
                0.0416429601609707,
                0.0888417512178421
            ]
        },
        {
            "componentType": 5126,
            "type": "VEC3",
            "count": 246821,
            "bufferView": 17,
            "byteOffset": 0
        },
        {
            "componentType": 5126,
            "type": "VEC2",
            "count": 246821,
            "bufferView": 18,
            "byteOffset": 0
        },
        {
            "componentType": 5126,
            "type": "VEC2",
            "count": 246821,
            "bufferView": 19,
            "byteOffset": 0
        },
        {
            "componentType": 5125,
            "type": "SCALAR",
            "count": 1202688,
            "bufferView": 20,
            "byteOffset": 0
        },
        {
            "componentType": 5126,
            "type": "VEC3",
            "count": 216678,
            "bufferView": 21,
            "byteOffset": 0,
            "min": [
                -0.0446686260402203,
                -0.043961875140667,
                -0.0763907060027122
            ],
            "max": [
                0.0446686260402203,
                0.043961875140667,
                0.0763907060027122
            ]
        },
        {
            "componentType": 5126,
            "type": "VEC3",
            "count": 216678,
            "bufferView": 22,
            "byteOffset": 0
        },
        {
            "componentType": 5126,
            "type": "VEC2",
            "count": 216678,
            "bufferView": 23,
            "byteOffset": 0
        },
        {
            "componentType": 5126,
            "type": "VEC2",
            "count": 216678,
            "bufferView": 24,
            "byteOffset": 0
        }
    ],
    "samplers": [
        {}
    ],
    "materials": [
        {
            "name": "cables",
            "alphaMode": "OPAQUE",
            "extras": {
                "fromFBX": {
                    "shadingModel": "Phong",
                    "isTruePBR": false
                }
            },
            "pbrMetallicRoughness": {
                "baseColorFactor": [
                    0.0900000035762787,
                    0.0900000035762787,
                    0.0900000035762787,
                    1.0
                ],
                "metallicFactor": 0.400000005960464,
                "roughnessFactor": 0.242535620927811
            }
        },
        {
            "name": "red line",
            "alphaMode": "OPAQUE",
            "extras": {
                "fromFBX": {
                    "shadingModel": "Phong",
                    "isTruePBR": false
                }
            },
            "pbrMetallicRoughness": {
                "baseColorFactor": [
                    1.0,
                    0.0,
                    0.0,
                    1.0
                ],
                "metallicFactor": 0.400000005960464,
                "roughnessFactor": 0.242535620927811
            }
        },
        {
            "name": "DefaultMaterial",
            "alphaMode": "OPAQUE",
            "extras": {
                "fromFBX": {
                    "shadingModel": "Lambert",
                    "isTruePBR": false
                }
            },
            "pbrMetallicRoughness": {
                "baseColorFactor": [
                    0.5,
                    0.5,
                    0.5,
                    1.0
                ],
                "metallicFactor": 0.200000002980232,
                "roughnessFactor": 0.800000011920929
            }
        },
        {
            "name": "red",
            "alphaMode": "OPAQUE",
            "extras": {
                "fromFBX": {
                    "shadingModel": "Phong",
                    "isTruePBR": false
                }
            },
            "pbrMetallicRoughness": {
                "baseColorFactor": [
                    0.800000011920929,
                    0.096000000834465,
                    0.096000000834465,
                    1.0
                ],
                "metallicFactor": 0.400000005960464,
                "roughnessFactor": 0.242535620927811
            }
        },
        {
            "name": "phones",
            "alphaMode": "OPAQUE",
            "extras": {
                "fromFBX": {
                    "shadingModel": "Phong",
                    "isTruePBR": false
                }
            },
            "pbrMetallicRoughness": {
                "baseColorFactor": [
                    0.209999993443489,
                    0.209999993443489,
                    0.209999993443489,
                    1.0
                ],
                "metallicFactor": 0.400000005960464,
                "roughnessFactor": 0.242535620927811
            }
        }
    ],
    "meshes": [
        {
            "name": "Little_Cables",
            "primitives": [
                {
                    "material": 0,
                    "mode": 4,
                    "attributes": {
                        "NORMAL": 2,
                        "POSITION": 1,
                        "TEXCOORD_0": 3,
                        "TEXCOORD_1": 4
                    },
                    "indices": 0
                },
                {
                    "material": 1,
                    "mode": 4,
                    "attributes": {
                        "NORMAL": 7,
                        "POSITION": 6,
                        "TEXCOORD_0": 8,
                        "TEXCOORD_1": 9
                    },
                    "indices": 5
                }
            ]
        },
        {
            "name": "Frame",
            "primitives": [
                {
                    "material": 2,
                    "mode": 4,
                    "attributes": {
                        "NORMAL": 12,
                        "POSITION": 11,
                        "TEXCOORD_0": 13,
                        "TEXCOORD_1": 14
                    },
                    "indices": 10
                },
                {
                    "material": 3,
                    "mode": 4,
                    "attributes": {
                        "NORMAL": 17,
                        "POSITION": 16,
                        "TEXCOORD_0": 18,
                        "TEXCOORD_1": 19
                    },
                    "indices": 15
                }
            ]
        },
        {
            "name": "Phones",
            "primitives": [
                {
                    "material": 4,
                    "mode": 4,
                    "attributes": {
                        "NORMAL": 22,
                        "POSITION": 21,
                        "TEXCOORD_0": 23,
                        "TEXCOORD_1": 24
                    },
                    "indices": 20
                }
            ]
        }
    ],
    "nodes": [
        {
            "name": "RootNode",
            "translation": [
                0.0,
                0.0,
                0.0
            ],
            "rotation": [
                0.0,
                0.0,
                0.0,
                1.0
            ],
            "scale": [
                1.0,
                1.0,
                1.0
            ],
            "children": [
                1
            ]
        },
        {
            "name": "Headphone",
            "translation": [
                -0.0993221998214722,
                0.47887334227562,
                0.0840401649475098
            ],
            "rotation": [
                0.772733569145203,
                0.634730517864227,
                -4.80564837456442e-17,
                -3.97671645521849e-17
            ],
            "scale": [
                0.140000000596046,
                0.140000000596046,
                0.140000000596046
            ],
            "children": [
                2,
                3,
                4
            ]
        },
        {
            "name": "Little_Cables",
            "translation": [
                0.000545119808521122,
                -0.0978092178702354,
                0.53346574306488
            ],
            "rotation": [
                0.772733569145203,
                0.634730517864227,
                6.66514964712107e-18,
                -8.47160200719735e-17
            ],
            "scale": [
                7.14285707473755,
                7.14285707473755,
                7.14285707473755
            ],
            "mesh": 0
        },
        {
            "name": "Frame",
            "translation": [
                0.0589043609797955,
                -0.00621730415150523,
                6.39488434655519e-16
            ],
            "rotation": [
                0.772733569145203,
                0.634730517864227,
                6.66514964712107e-18,
                -8.47160200719735e-17
            ],
            "scale": [
                7.14285707473755,
                7.14285707473755,
                7.14285707473755
            ],
            "mesh": 1
        },
        {
            "name": "Phones",
            "translation": [
                2.49687273026211e-05,
                -0.36763134598732,
                2.1316281596347e-16
            ],
            "rotation": [
                0.772733569145203,
                0.634730517864227,
                6.66514964712107e-18,
                -8.47160200719735e-17
            ],
            "scale": [
                7.14285707473755,
                7.14285707473755,
                7.14285707473755
            ],
            "mesh": 2
        }
    ]
}